<svg xmlns="http://www.w3.org/2000/svg" viewBox="0 0 690 690"><defs><style>.cls-1{fill:#0071bc;}.cls-2{fill:#ed1c24;}.cls-3,.cls-4{fill:#fff;}.cls-4{stroke:#999;stroke-miterlimit:10;}</style></defs><title>Asset 9raspaai</title><g id="Layer_2" data-name="Layer 2"><g id="Layer_2-2" data-name="Layer 2"><circle class="cls-1" cx="345" cy="345" r="345"/></g><g id="Layer_3" data-name="Layer 3"><path class="cls-2" d="M356.16,159.45c-49.06,0-88.84,44.08-88.84,98.45S356.16,429,356.16,429,445,312.28,445,257.9,405.23,159.45,356.16,159.45Zm0,130.35a42,42,0,1,1,42-42A42,42,0,0,1,356.16,289.8Z"/><circle class="cls-3" cx="356.16" cy="247.8" r="42" transform="translate(-70.9 324.42) rotate(-45)"/><path class="cls-4" d="M235.47,610.26a63.08,63.08,0,0,0,89.11.15l25.69-25.61,25.61,25.7a63,63,0,1,0,.16-89.11L350.34,547l-25.61-25.7a63,63,0,0,0-89.26,89Zm159.44-69.93a36.26,36.26,0,1,1-.09,51.3l-25.61-25.69Zm-140.41-.24a36.31,36.31,0,0,1,51.3.08l25.61,25.7-25.7,25.61a36.27,36.27,0,0,1-51.21-51.39Z"/><path class="cls-3" d="M443.76,493.31H261.35a27.21,27.21,0,0,1-25.81-18.61l-85-255H102.47A27.65,27.65,0,0,1,75,192.22c0-15,12.44-26.94,27.47-26.94h67.67A27.2,27.2,0,0,1,196,183.88l85,255H424.15l62.52-187.54a27.21,27.21,0,0,1,51.62,17.2L469.57,474.7A27.21,27.21,0,0,1,443.76,493.31Z"/></g></g></svg>