<svg xmlns="http://www.w3.org/2000/svg" viewBox="0 0 570 570"><defs><style>.cls-1{fill:#0071bc;}.cls-2{fill:#ed1c24;}.cls-3,.cls-4{fill:#fff;}.cls-4{stroke:#999;stroke-miterlimit:10;}</style></defs><title>raspaai-sqAsset 15</title><g id="Layer_2" data-name="Layer 2"><g id="Layer_2-2" data-name="Layer 2"><rect class="cls-1" width="570" height="570" rx="7.33" ry="7.33"/></g><g id="Layer_3" data-name="Layer 3"><path class="cls-2" d="M297.71,82.5c-46,0-83.37,41.36-83.37,92.39s83.37,160.58,83.37,160.58,83.38-109.55,83.38-160.58S343.76,82.5,297.71,82.5Zm0,122.33a39.42,39.42,0,1,1,39.42-39.42A39.42,39.42,0,0,1,297.71,204.83Z"/><circle class="cls-3" cx="297.71" cy="165.41" r="39.42" transform="translate(-29.76 258.96) rotate(-45)"/><path class="cls-4" d="M184.45,505.55a59.18,59.18,0,0,0,83.62.15l24.11-24,24,24.11a59.1,59.1,0,1,0,.14-83.62l-24.11,24-24-24.12a59.13,59.13,0,0,0-83.77,83.48Zm149.62-65.62a34,34,0,1,1-.08,48.15L310,464Zm-131.76-.23a34.09,34.09,0,0,1,48.14.08l24,24.12-24.12,24a34,34,0,1,1-48.05-48.23Z"/><path class="cls-3" d="M379.91,395.8H208.73a25.54,25.54,0,0,1-24.22-17.46L104.74,139H59.63a25.94,25.94,0,0,1-25.77-25.78C33.86,99.15,45.53,88,59.63,88h63.51a25.52,25.52,0,0,1,24.22,17.45l79.78,239.32H361.51l58.67-176a25.53,25.53,0,1,1,48.44,16.15L404.14,378.34A25.54,25.54,0,0,1,379.91,395.8Z"/></g></g></svg>